<svg width="225" height="84" viewBox="0 0 225 84" fill="none" xmlns="http://www.w3.org/2000/svg">
<g clip-path="url(#clip0_519_7585)">
<path d="M224.538 12.8038V74.5981C224.537 77.0913 223.541 79.4819 221.768 81.2449C219.995 83.0078 217.591 83.9987 215.084 83.9999H0V74.8372L6.00988 68.4927L0 62.1712V8.22016C0.00353655 7.68178 0.168921 7.15676 0.47489 6.71259C0.780859 6.26843 1.21343 5.92543 1.71697 5.72769C2.22052 5.52995 2.77204 5.48652 3.3006 5.60298C3.82917 5.71943 4.31063 5.99045 4.68309 6.38118L20.8635 23.3917L8.52016 36.3887L12.7687 40.8437L25.1213 27.8421L59.1973 63.6746L54.3756 68.7548H31.2606L17.3917 54.2038L23.3646 47.8961L34.7325 59.8495L38.9672 55.4084L23.3507 38.9771L21.8482 40.5678L19.116 43.4366L8.90849 54.1901L13.1432 58.6588L28.7319 75.0579H56.8535L63.4366 68.1617L71.5685 76.6762C73.0088 78.1906 74.7447 79.397 76.6699 80.2214C78.5951 81.0459 80.6692 81.4712 82.7653 81.4713H214.645C216.598 81.4713 218.472 80.6997 219.853 79.3262C221.234 77.9528 222.01 76.09 222.01 74.1476V13.8474C222.01 10.9446 220.851 8.16055 218.788 6.10708C216.724 4.05361 213.926 2.89875 211.007 2.89632H101.465C101.3 2.89632 101.135 2.86386 100.982 2.80078C100.829 2.73771 100.69 2.64525 100.573 2.5287C100.456 2.41216 100.363 2.2738 100.299 2.12152C100.236 1.96924 100.203 1.80604 100.203 1.64121C100.203 1.47639 100.236 1.31318 100.299 1.16091C100.363 1.00863 100.456 0.870268 100.573 0.753721C100.69 0.637174 100.829 0.544723 100.982 0.481649C101.135 0.418574 101.3 0.386109 101.465 0.386109H212.052C213.692 0.385505 215.316 0.706286 216.831 1.33012C218.346 1.95395 219.723 2.86862 220.883 4.02183C222.042 5.17504 222.962 6.54419 223.589 8.05105C224.216 9.55791 224.539 11.1729 224.538 12.8038Z" fill="white"/>
<path d="M52.0957 41.2208H57.9207C57.9207 42.6782 59.0487 43.3862 60.3339 43.3862C61.5174 43.3862 62.6454 42.7609 62.6454 41.6483C62.6454 40.3702 61.0504 39.9978 59.0995 39.5289C56.1408 38.7979 52.3592 37.8922 52.3592 33.258C52.3592 29.2444 55.3226 26.9457 60.1536 26.9457C65.0632 26.9457 67.8832 29.4559 67.8832 33.5982H62.2201C62.2201 32.3109 61.2585 31.7086 60.0889 31.7086C59.081 31.7086 58.1148 32.1408 58.1148 33.0879C58.1148 34.2418 59.6589 34.6234 61.5867 35.1062C64.6009 35.8831 68.5443 36.8808 68.5443 41.5426C68.5443 45.9929 65.1094 48.3008 60.3524 48.3008C55.3364 48.2962 52.0957 45.6619 52.0957 41.2208Z" fill="white"/>
<path d="M84.8558 42.9311V47.7998H71.5V27.4285H84.6062V32.2788H77.1216V35.2993H83.848V39.8967H77.1216V42.9449L84.8558 42.9311Z" fill="white"/>
<path d="M95.7837 41.5656H93.7358V47.7998H88.0957V27.4285H96.9718C101.387 27.4285 104.586 30.38 104.586 34.6373C104.609 35.7955 104.322 36.939 103.753 37.95C103.184 38.9609 102.355 39.8027 101.35 40.3887L105.418 47.7998H99.1308L95.7837 41.5656ZM93.7358 36.8394H96.3154C97.8918 36.8394 98.7979 35.8924 98.7979 34.6189C98.7979 33.3454 97.8733 32.4167 96.3154 32.4167H93.7358V36.8394Z" fill="white"/>
<path d="M126.153 27.4285L118.294 47.7998H113.06L105.049 27.4285H111.489L115.649 40.0898L119.731 27.4285H126.153Z" fill="white"/>
<path d="M128.217 27.4285H133.935V47.7998H128.217V27.4285Z" fill="white"/>
<path d="M147.721 48.3147C141.489 48.3147 136.834 43.7172 136.834 37.6302C136.834 31.5432 141.489 26.9136 147.721 26.9136C153.088 26.9136 157.249 30.4398 158.081 35.6027H152.363C152.066 34.6113 151.456 33.7411 150.623 33.121C149.791 32.5009 148.78 32.1636 147.74 32.1593C144.841 32.1593 142.71 34.458 142.71 37.6302C142.71 40.8025 144.841 43.0598 147.74 43.0598C150.014 43.0598 151.799 41.584 152.363 39.3221H158.137C157.355 44.6781 153.172 48.3147 147.716 48.3147H147.721Z" fill="white"/>
<path d="M174.2 42.9311V47.7998H160.844V27.4285H173.95V32.2788H166.461V35.2993H173.192V39.8967H166.461V42.9449L174.2 42.9311Z" fill="white"/>
<path d="M42.8863 23.6539L40.5748 20.831C39.3202 21.2163 38.0137 21.4085 36.7007 21.4011C30.1176 21.4011 25.416 16.9278 25.416 10.6983C25.416 4.46872 30.1222 0 36.7192 0C43.3162 0 47.9669 4.45952 47.9669 10.6983C47.9998 12.1636 47.7211 13.6193 47.1491 14.9701C46.5771 16.321 45.7247 17.5364 44.6476 18.5369L48.9008 23.6539H42.8863ZM36.7192 16.1784C39.8351 16.1784 42.0911 13.8797 42.0911 10.6983C42.0911 7.51683 39.8212 5.2227 36.7192 5.2227C33.6172 5.2227 31.3103 7.52142 31.3103 10.6983C31.3103 13.8751 33.5848 16.1784 36.7192 16.1784Z" fill="white"/>
<path d="M62.3582 17.576H55.1001L53.9629 20.8862H47.916L55.9646 0.514893H61.4799L69.6995 20.8862H63.4862L62.3582 17.576ZM58.7153 6.87317L56.4732 13.1855H60.9806L58.7153 6.87317Z" fill="white"/>
<path d="M86.5866 15.6589V20.8862H70.3691V19.7184L77.9601 5.74219H70.8684V0.514893H86.2352V1.78379L78.6859 15.6589H86.5866Z" fill="white"/>
<path d="M85.627 58.999H91.0682V74.7131H85.627V58.999ZM85.6686 52.4385H91.0266V57.0359H85.6686V52.4385Z" fill="white"/>
<path d="M94.373 64.1987H105.089V69.118H94.373V64.1987Z" fill="white"/>
<path d="M129.31 63.8264C129.31 70.4927 124.932 75.228 118.52 75.228C112.242 75.228 107.605 70.7409 107.605 64.5436C107.605 58.3462 112.159 53.8269 118.469 53.8269C123.837 53.8269 128.229 57.1693 129.102 61.9H123.171C122.756 61.0289 122.094 60.2977 121.266 59.7968C120.437 59.296 119.48 59.0474 118.511 59.0818C115.441 59.0818 113.375 61.2886 113.375 64.5436C113.375 67.7986 115.409 69.9731 118.511 69.9731C120.665 69.9731 122.51 68.9341 123.134 67.3664H118.086V63.8264H129.31Z" fill="white"/>
<path d="M139.851 68.479H137.803V74.7131H132.158V54.3418H141.039C145.454 54.3418 148.653 57.2934 148.653 61.5506C148.677 62.7088 148.389 63.8523 147.82 64.8633C147.251 65.8742 146.422 66.7161 145.417 67.302L149.485 74.7131H143.17L139.851 68.479ZM137.803 63.7528H140.383C141.959 63.7528 142.865 62.8333 142.865 61.5368C142.865 60.2403 141.94 59.33 140.383 59.33H137.803V63.7528Z" fill="white"/>
<path d="M162.005 75.228C155.418 75.228 150.721 70.7547 150.721 64.5298C150.721 58.3048 155.395 53.8269 162.005 53.8269C168.616 53.8269 173.253 58.2864 173.253 64.5298C173.253 70.7731 168.547 75.228 162.005 75.228ZM162.005 70.0053C165.121 70.0053 167.377 67.7066 167.377 64.5298C167.377 61.3529 165.121 59.0496 162.005 59.0496C158.89 59.0496 156.597 61.3483 156.597 64.5298C156.597 67.7112 158.885 70.0053 162.005 70.0053Z" fill="white"/>
<path d="M175.893 66.8331V54.3418H181.662V66.7273C181.662 68.718 182.952 70.0053 184.833 70.0053C186.715 70.0053 188.009 68.718 188.009 66.7273V54.3418H193.774V66.8331C193.774 71.8443 190.076 75.228 184.833 75.228C179.591 75.228 175.893 71.8443 175.893 66.8331Z" fill="white"/>
<path d="M213.838 61.7023C213.838 65.9733 210.602 69.0858 206.252 69.0858H203.187V74.7131H197.533V54.3418H206.252C210.607 54.3418 213.838 57.4313 213.838 61.7023ZM208.041 61.7023C208.06 61.3745 208.01 61.0463 207.893 60.7391C207.777 60.4319 207.596 60.1525 207.364 59.9192C207.131 59.6859 206.852 59.5039 206.544 59.385C206.237 59.266 205.907 59.2128 205.577 59.2289H203.187V64.1711H205.577C205.905 64.187 206.233 64.1343 206.54 64.0164C206.846 63.8986 207.124 63.7182 207.357 63.4869C207.589 63.2557 207.77 62.9786 207.887 62.6736C208.005 62.3686 208.058 62.0425 208.041 61.7161V61.7023Z" fill="white"/>
</g>
<defs>
<clipPath id="clip0_519_7585">
<rect width="224.538" height="84" fill="white"/>
</clipPath>
</defs>
</svg>
